<svg width="144" height="139" viewBox="0 0 144 139" fill="none" xmlns="http://www.w3.org/2000/svg">
<path d="M43.7205 0.576764C44.181 0.379825 44.6441 0.187551 45.1095 0H98.8905C99.3559 0.187551 99.819 0.379825 100.28 0.576764H43.7205Z" fill="white"/>
<path d="M32.8983 6.3444C33.1984 6.14996 33.4999 5.9577 33.803 5.76764H110.197C110.5 5.9577 110.802 6.14996 111.102 6.3444H32.8983Z" fill="white"/>
<path d="M25.18 12.112C25.406 11.9184 25.6332 11.7261 25.8617 11.5353H118.138C118.367 11.7261 118.594 11.9184 118.82 12.112H25.18Z" fill="white"/>
<path d="M19.1818 17.8797C19.3609 17.6864 19.5411 17.4942 19.7224 17.3029H124.278C124.459 17.4942 124.639 17.6864 124.818 17.8797H19.1818Z" fill="white"/>
<path d="M14.3658 23.6473C14.5106 23.4543 14.6564 23.262 14.8032 23.0705H129.197C129.344 23.262 129.489 23.4543 129.634 23.6473H14.3658Z" fill="white"/>
<path d="M10.4569 29.4149C10.5745 29.2221 10.6929 29.0298 10.8122 28.8382H133.188C133.307 29.0298 133.426 29.2221 133.543 29.4149H10.4569Z" fill="white"/>
<path d="M7.29362 35.1826C7.38813 34.9898 7.48348 34.7976 7.57966 34.6058H136.42C136.517 34.7976 136.612 34.9898 136.706 35.1826H7.29362Z" fill="white"/>
<path d="M4.77289 40.9502C4.84719 40.7576 4.9223 40.5653 4.99821 40.3734H139.002C139.078 40.5653 139.153 40.7576 139.227 40.9502H4.77289Z" fill="white"/>
<path d="M2.82576 46.7178C2.88177 46.5253 2.93857 46.333 2.99614 46.1411H141.004C141.061 46.333 141.118 46.5253 141.174 46.7178H2.82576Z" fill="white"/>
<path d="M1.4048 52.4855C1.44385 52.2929 1.48367 52.1007 1.52425 51.9087H142.476C142.516 52.1007 142.556 52.2929 142.595 52.4855H1.4048Z" fill="white"/>
<path d="M0.477146 58.2531C0.500147 58.0606 0.523906 57.8684 0.54842 57.6763H143.452C143.476 57.8684 143.5 58.0606 143.523 58.2531H0.477146Z" fill="white"/>
<path d="M0.0203922 64.0208C0.0279565 63.8283 0.0362745 63.636 0.0453435 63.444H143.955C143.964 63.636 143.972 63.8283 143.98 64.0208H0.0203922Z" fill="white"/>
<path d="M0.0203922 69.7884C0.0128431 69.5963 0.00604477 69.4041 0 69.2116H144C143.994 69.4041 143.987 69.5963 143.98 69.7884H0.0203922Z" fill="white"/>
<path d="M0.477146 75.556C0.454201 75.364 0.432009 75.1717 0.410575 74.9793H143.589C143.568 75.1717 143.546 75.364 143.523 75.556H0.477146Z" fill="white"/>
<path d="M1.4048 81.3237C1.36586 81.1317 1.32769 80.9394 1.29028 80.7469H142.71C142.672 80.9394 142.634 81.1317 142.595 81.3237H1.4048Z" fill="white"/>
<path d="M2.82576 87.0913C2.76994 86.8994 2.71489 86.7071 2.66063 86.5145H141.339C141.285 86.7071 141.23 86.8994 141.174 87.0913H2.82576Z" fill="white"/>
<path d="M4.77289 92.8589C4.69889 92.6671 4.62569 92.4748 4.55328 92.2822H139.447C139.374 92.4748 139.301 92.6671 139.227 92.8589H4.77289Z" fill="white"/>
<path d="M7.29362 98.6266C7.19958 98.4348 7.10637 98.2425 7.01398 98.0498H136.986C136.894 98.2425 136.8 98.4348 136.706 98.6266H7.29362Z" fill="white"/>
<path d="M10.4569 104.394C10.3401 104.203 10.2242 104.01 10.1091 103.817H133.891C133.776 104.01 133.66 104.203 133.543 104.394H10.4569Z" fill="white"/>
<path d="M14.3658 110.162C14.222 109.97 14.0792 109.778 13.9374 109.585H130.063C129.921 109.778 129.778 109.97 129.634 110.162H14.3658Z" fill="white"/>
<path d="M19.1818 115.929C19.0044 115.738 18.8281 115.546 18.6528 115.353H125.347C125.172 115.546 124.996 115.738 124.818 115.929H19.1818Z" fill="white"/>
<path d="M25.18 121.697C24.9571 121.506 24.7354 121.314 24.515 121.12H119.485C119.265 121.314 119.043 121.506 118.82 121.697H25.18Z" fill="white"/>
<path d="M32.8983 127.465C32.6049 127.275 32.3129 127.082 32.0224 126.888H111.978C111.687 127.082 111.395 127.275 111.102 127.465H32.8983Z" fill="white"/>
<path d="M43.7205 133.232C43.2808 133.044 42.8433 132.852 42.4082 132.656H101.592C101.157 132.852 100.719 133.044 100.28 133.232H43.7205Z" fill="white"/>
<path d="M81.1553 138.423C78.1571 138.804 75.1015 139 72 139C68.8985 139 65.8429 138.804 62.8447 138.423H81.1553Z" fill="white"/>
</svg>
